<svg width="240" height="240" viewBox="0 0 240 240" fill="none" xmlns="http://www.w3.org/2000/svg">
<g id="BuildersGate Logo">
<g id="Format=Symbol, Tone=Black">
<g id="symbol_black">
<path id="Vector" d="M116.983 97.0308C116.963 82.9013 117.024 62.9979 116.963 53.707C117.69 40.6753 104.291 45.1073 94.8737 48.9497C71.3091 58.7489 54.4744 83.5721 53.3022 108.802V109.087C52.7565 123.358 53.1809 142.55 53.0395 158.265C53.0395 166.784 53.0395 174.835 53.0395 180.608C52.7363 190.509 53.9893 195.267 63.5485 191.953C84.9305 185.406 111.971 164.548 115.912 129.844C117.63 118.398 116.741 109.737 116.963 97.0308H116.983Z" fill="black"/>
<path id="Vector_2" d="M164.743 61.9548L164.481 61.7085C158.099 55.7778 150.407 50.9758 142.212 47.836C135.769 45.6402 126.487 42.7877 123.688 47.7334C122.299 70.9227 123.487 159.391 123.225 186.725C123.407 198.074 143.34 194.175 151.535 194.913C165.488 194.954 181.858 196.904 186.146 179.83C187.757 166.573 186.468 152.516 186.851 138.069C187.375 107.779 187.777 83.7897 164.723 61.9138L164.743 61.9548Z" fill="black"/>
</g>
</g>
</g>
</svg>
