<svg width="992" height="200" viewBox="0 0 992 200" fill="none" xmlns="http://www.w3.org/2000/svg">
<g id="BuildersGate Logo">
<g id="Format=Horizontal, Tone=Black">
<g id="symbol_black">
<g id="symbol_black_2" clip-path="url(#clip0_415_2)">
<path id="Vector" d="M101.075 81.6246C101.059 70.321 101.107 54.3984 101.059 46.9656C101.639 36.5403 90.9436 40.0859 83.4258 43.1598C64.6153 50.9991 51.1769 70.8577 50.2412 91.0416V91.2693C49.8056 102.687 50.1444 118.04 50.0315 130.612C50.0315 137.427 50.0315 143.868 50.0315 148.487C49.7895 156.407 50.7897 160.213 58.4204 157.562C75.4886 152.325 97.0739 135.638 100.22 107.875C101.591 98.7183 100.881 91.7897 101.059 81.6246H101.075Z" fill="black"/>
<path id="Vector_2" d="M139.199 53.5638L138.99 53.3668C133.895 48.6223 127.756 44.7806 121.214 42.2688C116.071 40.5122 108.661 38.2302 106.427 42.1867C105.318 60.7381 106.267 131.513 106.058 153.38C106.202 162.459 122.114 159.34 128.656 159.931C139.794 159.964 152.861 161.523 156.285 147.864C157.57 137.259 156.542 126.013 156.847 114.455C157.265 90.2234 157.586 71.0317 139.183 53.531L139.199 53.5638Z" fill="black"/>
</g>
</g>
<g id="wordmark_black" clip-path="url(#clip1_415_2)">
<g id="Vector_3">
<path fill-rule="evenodd" clip-rule="evenodd" d="M638.894 67.1277C637.298 67.1277 636.021 67.4468 635.702 67.766C635.383 67.766 634.106 68.0851 632.83 68.0851C626.766 68.7234 617.511 75.4256 616.553 79.8936C616.234 80.5319 615.915 81.8085 615.596 82.766C615.277 84.6809 615.277 88.8298 616.234 90.1064C616.234 90.4256 616.553 91.0639 616.553 91.7022C616.553 94.2553 619.745 97.766 624.851 100C628.681 101.915 629.638 102.234 632.191 102.872C632.83 102.872 633.468 103.192 633.787 103.192C633.787 103.511 634.426 103.511 635.064 103.511C635.702 103.192 636.34 103.192 636.979 103.511C637.298 103.83 638.574 103.83 639.851 104.149C641.128 104.149 643.043 104.468 644 104.787C645.596 105.106 648.149 105.426 651.021 105.745C651.34 106.064 651.979 106.064 652.617 106.383C652.936 106.383 653.574 106.702 653.894 106.702C654.851 106.702 659.957 109.255 660.596 110.213C661.553 111.489 662.511 115 662.191 115.638C661.872 115.957 661.872 116.277 661.872 116.596C662.83 117.553 659 122.021 657.404 122.021C657.085 122.021 656.447 122.34 656.128 122.66C654.851 123.617 642.085 123.936 638.894 123.298C638.255 123.298 636.979 122.979 636.34 122.979C635.702 122.979 634.106 122.34 632.83 122.021C631.553 121.383 630.277 120.745 629.957 120.745C629 120.745 626.766 117.234 626.766 114.681C626.128 110.532 626.128 110.532 620.702 110.532C615.277 110.851 614.319 111.809 615.915 115.957C616.234 116.915 616.553 117.872 616.872 118.83C617.191 122.66 624.851 129.681 629.638 130.957C629.957 130.957 630.915 131.277 631.553 131.596C631.872 131.915 633.149 132.234 634.106 132.234C635.064 132.553 636.66 132.553 637.617 132.872C640.17 133.511 651.66 133.511 653.255 132.872C653.894 132.553 655.17 132.234 656.128 132.234C657.404 131.915 658.362 131.596 659 131.277C659.638 130.957 660.596 130.638 660.915 130.638C661.553 130.638 662.191 130.319 662.83 130C663.149 129.681 664.106 129.043 665.064 128.404C666.979 127.447 671.447 122.34 671.766 121.064C671.766 120.745 672.085 119.468 672.404 118.83C673.043 116.596 673.043 111.489 672.404 110.532C672.085 109.894 671.766 109.255 671.766 108.617C671.766 105.426 663.787 99.0426 658.362 98.0851C657.723 97.766 657.085 97.766 656.447 97.4468C655.809 97.4468 655.17 97.1277 654.851 97.1277C654.213 97.1277 652.936 96.8085 651.66 96.4894C648.468 96.1702 647.511 95.8511 645.596 95.5319C644.638 95.2128 643.043 95.2128 641.766 94.8936C638.255 94.2553 634.745 93.617 634.426 93.2979C634.106 92.9787 633.787 92.9787 633.149 92.9787C629.638 92.9787 624.851 87.2341 626.128 84.6809C626.447 84.3617 626.447 84.0426 626.447 83.7234C625.489 82.766 627.723 80.2128 630.596 78.617C633.149 77.0213 645.596 75.7447 648.787 76.7021C649.106 77.0213 650.064 77.0213 650.702 77.0213C651.66 77.3404 652.617 77.3404 652.617 77.6596C652.936 77.9787 653.255 77.9787 653.894 77.9787C655.809 77.9787 659.638 81.1702 660.277 83.4043C660.277 83.7234 660.596 84.3617 660.915 84.6809C660.915 85.3192 661.234 86.2766 661.234 87.2341C661.234 89.7873 661.234 89.7873 666.979 89.7873H671.766L671.447 86.9149C671.447 85.3192 671.447 84.3617 671.128 83.7234C670.809 83.4043 670.489 82.4468 670.489 82.1277C670.489 79.5745 666.021 73.1915 663.468 72.2341C662.83 71.9149 661.872 71.2766 661.553 70.9575C661.234 70.3192 660.596 70 659.957 70C659.638 70 658.681 69.6809 658.043 69.3617C656.766 68.7234 654.532 68.0851 650.702 67.4468C648.468 67.1277 642.085 66.8085 638.894 67.1277ZM194 100.957V133.511H215.383C234.851 133.511 236.766 133.192 237.404 132.872C238.043 132.553 238.681 132.234 239 132.234C245.702 132.234 252.404 122.34 251.766 113.723C251.128 109.574 246.34 101.915 244.106 101.915C243.468 101.915 242.511 101.596 241.553 101.277C240.915 100.638 239.319 100.319 238.362 100.319C236.128 100 236.128 100 236.128 99.3617C236.447 99.0426 236.766 98.7234 237.404 98.7234C237.723 98.7234 238.362 98.4043 239 98.4043C239.319 98.0851 239.638 97.766 240.277 97.766C241.234 97.766 245.702 94.5745 246.34 93.2979C246.66 92.6596 247.298 92.0213 247.617 91.383C251.128 87.5532 247.617 71.9149 243.468 71.9149C243.149 71.9149 242.511 71.5958 241.872 70.9575C241.234 70.3192 240.277 70 239.957 70C239.638 70 238.681 69.6809 238.043 69.3617C235.489 68.4043 231.66 68.0851 212.511 68.0851H194V100.957ZM260.702 68.4043C260.064 69.3617 260.383 110.532 261.021 112.447C261.34 113.085 261.66 114.043 261.66 114.681C262.936 121.383 271.872 130.319 278.894 131.596C279.213 131.915 280.489 131.915 281.128 132.234C284.638 133.192 286.234 133.192 291.979 133.192C296.766 133.192 298.362 133.192 298.681 132.872C299.319 132.553 300.277 132.234 301.234 132.234C302.511 131.915 303.468 131.596 304.106 131.596C304.426 131.277 305.064 130.957 305.064 130.957C306.66 130.957 313.362 126.809 315.277 124.894C317.191 122.66 320.064 117.872 320.064 116.596C320.064 115.957 320.383 114.681 321.34 112.447C321.979 110.532 322.298 69.3617 321.66 68.4043C321.021 67.766 312.404 67.766 311.766 68.4043C311.447 68.7234 311.447 74.7873 311.447 88.5107C311.128 116.915 310.809 118.511 299.957 122.34C297.404 123.298 286.553 123.617 284.638 122.66C284 122.34 283.362 122.34 283.043 122.34C280.489 122.979 274.106 118.192 273.149 115.319C272.83 114.681 272.511 114.043 272.191 113.723C272.191 113.085 271.872 112.447 271.872 112.128C271.872 111.489 271.553 110.851 271.553 110.213C270.915 109.894 270.915 106.702 270.915 89.149C270.915 73.8298 270.915 68.7234 270.596 68.4043C269.957 67.766 261.34 68.0851 260.702 68.4043ZM333.468 68.4043C332.83 69.0426 332.83 132.553 333.468 133.192C334.106 133.511 342.723 133.511 343.362 133.192C344 132.553 344 69.0426 343.362 68.4043C342.723 68.0851 334.106 68.0851 333.468 68.4043ZM355.17 68.4043C354.532 69.0426 354.532 132.553 355.17 133.192C355.809 133.83 404 133.83 404.638 133.192C404.957 132.553 404.957 125.532 404.638 124.574C404.319 123.617 404.319 123.617 385.17 123.617C374 123.617 365.702 123.617 365.702 123.298C365.383 123.298 365.383 111.809 365.383 96.1702C365.383 76.0639 365.383 68.7234 365.064 68.4043C364.426 68.0851 355.809 67.766 355.17 68.4043ZM415.17 68.4043C414.532 69.0426 414.532 132.553 415.17 133.192C416.128 133.83 449.638 133.511 451.553 132.872C452.191 132.553 453.149 132.234 453.787 131.915C454.745 131.915 455.383 131.596 455.702 131.277C456.34 131.277 456.979 130.957 457.298 130.957C458.255 130.957 462.404 129.043 463.362 128.085C463.681 127.447 464.638 126.809 465.277 126.489C469.106 123.617 473.894 116.277 474.532 112.447C474.851 112.128 474.851 110.851 475.17 110.213C476.128 106.702 476.128 105.106 476.128 100C476.128 95.8511 476.128 94.2553 475.809 93.9362C475.489 93.2979 475.17 92.3404 475.17 91.383C474.851 90.1064 474.532 89.149 474.532 88.8298C474.213 88.1915 473.894 87.5532 473.894 86.9149C473.574 85.3192 471.979 82.1277 471.021 81.1702C470.383 80.8511 469.745 79.8936 469.426 79.2553C466.553 75.4256 459.213 70.6383 455.383 70C455.064 69.6809 453.787 69.6809 453.149 69.3617C452.511 69.0426 450.915 68.7234 450.277 68.7234C448.043 68.0851 415.809 68.0851 415.17 68.4043ZM485.383 68.4043C484.745 69.0426 484.745 132.553 485.383 133.192C486.021 133.83 536.766 133.83 537.404 133.192C537.723 132.553 537.723 125.532 537.404 124.574C537.085 123.617 537.085 123.617 516.66 123.617C505.489 123.617 496.234 123.617 495.915 123.298C495.596 123.298 495.596 105.745 495.915 105.745C496.234 105.426 504.851 105.426 515.064 105.426C538.362 105.426 536.128 106.064 536.128 100.638V96.4894L516.34 96.1702C492.404 96.1702 495.596 97.4468 495.596 86.9149C495.596 76.7021 492.404 77.9787 516.979 77.9787C537.085 77.9787 537.085 77.9787 537.404 77.0213C537.723 76.0638 537.723 69.0426 537.404 68.4043C536.766 67.766 486.021 67.766 485.383 68.4043ZM549.213 68.4043C548.574 69.0426 548.574 132.553 549.213 133.192C549.851 133.83 558.468 133.511 559.106 133.192C559.426 132.872 559.426 129.362 559.426 120.426C559.426 113.723 559.426 108.298 559.745 108.298C560.064 107.979 571.234 107.979 575.064 108.298C576.34 108.617 579.851 109.894 581.447 111.17C582.085 111.809 585.915 117.234 585.915 117.872C585.915 117.872 586.553 118.83 587.191 120.106C587.83 121.064 588.468 122.021 588.468 122.34C588.468 122.34 588.787 122.66 588.787 122.979C589.106 123.298 590.064 124.894 591.021 126.489C594.213 133.511 594.213 133.511 600.915 133.511C606.021 133.192 606.979 133.192 606.021 131.915C605.702 131.596 605.383 131.277 605.383 130.957C605.383 130.957 604.745 129.681 603.149 127.447C602.83 126.809 601.872 125.213 600.915 123.617C600.277 122.021 599 120.106 598.681 119.149C598.043 118.511 597.723 117.872 597.723 117.553C597.723 117.553 597.404 117.234 597.085 116.915C597.085 116.596 596.128 115.638 595.809 114.362C595.17 113.085 594.532 112.128 594.213 111.489C593.574 111.17 592.936 110.532 592.617 109.894C592.298 109.255 591.66 108.936 591.66 108.936C591.34 108.936 590.702 108.617 590.383 107.979C589.745 107.34 589.106 107.021 588.787 107.021C588.468 107.021 588.149 106.702 587.511 106.702C586.872 105.745 587.511 105.106 589.106 105.106C590.064 105.106 590.702 104.787 591.34 104.787C591.66 104.468 592.298 104.149 592.936 104.149C593.255 104.149 594.213 103.83 594.851 103.511C595.489 103.192 596.128 102.872 596.447 102.872C596.766 102.872 599.957 100.319 601.234 99.0426C604.426 95.5319 606.66 85.3192 604.745 82.4468C604.426 81.8085 604.106 81.1702 604.106 80.5319C603.468 78.2979 598.362 71.9149 597.085 71.9149C596.766 71.9149 595.809 71.2766 594.532 70.6383C589.745 68.4043 587.191 68.0851 566.766 68.0851C554 68.0851 549.532 68.0851 549.213 68.4043ZM711.979 69.6809C710.702 69.6809 709.426 70 709.106 70.3192C708.468 70.3192 707.511 70.6383 706.234 70.6383C704.957 70.9575 703.681 71.2766 703.362 71.5958C703.043 71.5958 702.723 71.9149 702.404 71.9149C702.085 71.9149 701.128 72.2341 700.17 72.8724C699.532 73.1915 698.574 73.5107 698.255 73.5107C696.979 73.5107 691.872 77.6596 689 81.1702C687.404 83.0851 683.894 89.7873 683.574 91.7022C683.255 92.0213 683.255 93.2979 682.936 93.9362C681.66 98.7234 681.34 107.34 682.617 109.894C682.617 110.532 682.936 111.809 683.255 112.766C683.255 115 687.085 122.979 688.681 124.574C689 125.213 689.957 126.17 690.596 126.809C692.511 129.362 700.489 134.149 702.404 134.149C702.723 134.149 703.681 134.468 704.319 134.787C705.277 135.106 706.234 135.426 706.872 135.426C707.511 135.426 709.106 135.426 710.383 135.745C713.255 136.064 719 135.745 720.277 135.426C720.596 135.106 721.553 134.787 722.511 134.787C726.66 134.149 732.723 129.681 734.319 126.17C734.957 125.213 735.277 124.255 735.596 123.936C735.915 123.617 736.234 123.298 736.234 122.979C736.234 122.66 736.553 122.34 736.872 122.34C737.191 122.34 737.191 122.979 737.191 128.404C737.191 133.83 737.191 134.149 737.83 134.468C738.787 134.787 746.128 134.787 746.766 134.468C747.085 133.83 747.404 104.149 746.766 102.872C746.447 101.915 746.447 101.915 730.489 101.915C711.021 101.915 712.617 101.596 712.617 106.064C712.617 110.532 711.66 110.213 725.064 110.213L736.553 110.532L736.234 112.447C736.234 115.638 735.277 118.192 733.362 121.064C732.404 122.021 728.574 123.936 726.34 124.574C725.383 124.894 724.426 124.894 724.106 125.213C723.149 125.532 711.34 125.851 709.745 125.532C708.787 125.213 707.83 125.213 707.511 125.213C707.191 124.894 706.234 124.574 705.277 124.255C704.638 123.936 703.681 123.617 703.362 123.617C700.489 123.617 696.021 118.192 694.106 112.766C693.468 110.851 692.511 101.915 693.149 101.277C693.149 101.277 693.149 100 693.149 98.4043C693.149 97.1277 693.468 95.5319 693.787 94.8936C693.787 94.5745 694.106 93.9362 694.106 93.617C694.106 93.2979 694.426 92.3404 694.745 91.7022C695.064 90.7447 695.383 90.1064 695.383 89.7873C695.383 89.149 695.702 88.5107 696.34 87.8724C696.979 87.2341 697.298 86.5958 697.298 86.2766C697.298 85.3192 704.319 80.8511 705.915 80.8511C706.234 80.8511 707.191 80.5319 707.511 80.5319C708.149 79.8936 717.085 79.5745 720.596 79.8936C721.872 80.2128 723.468 80.2128 723.787 80.2128C724.106 80.5319 724.745 80.5319 725.383 80.8511C725.702 80.8511 726.34 81.1702 726.66 81.1702C727.298 81.1702 727.936 81.4894 728.574 82.1277C729.213 82.4468 730.17 83.0851 730.489 83.4043C732.404 84.0426 735.277 88.5107 735.277 91.0639C735.277 94.5745 735.277 94.5745 741.34 94.5745H746.766V92.0213C746.766 90.1064 746.766 89.149 746.447 88.5107C746.128 88.1915 745.808 87.5532 745.808 87.2341C745.808 84.0426 739.745 76.383 735.915 74.4681C735.277 74.149 733.681 73.5107 733.043 73.1915C729.851 71.2766 728.894 71.2766 726.34 70.6383C725.702 70.6383 725.064 70.3192 724.745 70.3192C724.426 70 717.723 69.3617 715.808 69.3617C714.851 69.3617 713.255 69.6809 711.979 69.6809ZM782.191 70.3192C781.553 70.9575 781.234 71.5958 781.234 71.9149C781.234 72.2341 780.596 73.8298 779.319 75.7447C778.362 77.6596 777.723 79.5745 777.723 79.5745C777.723 79.8936 777.404 80.8511 777.085 81.4894C776.447 82.4468 776.128 83.0851 776.128 83.4043C776.128 83.7234 775.489 85.3192 774.213 87.2341C773.255 89.149 772.617 91.0639 772.617 91.0639C772.617 91.383 772.298 92.3404 771.979 92.9787C771.34 93.9362 771.021 94.5745 771.021 94.8936C771.021 95.2128 770.064 97.1277 769.106 99.0426C766.872 104.149 765.915 106.064 765.915 106.383C765.915 106.702 764.957 108.617 764 110.532C761.766 115.638 760.808 117.553 760.808 117.872C760.808 118.192 759.851 120.426 758.574 122.979C756.979 125.532 756.021 128.085 755.702 128.723C755.702 130 754.426 132.553 753.787 133.511C752.511 134.787 763.362 135.426 764.638 134.149C765.596 133.511 768.468 127.766 768.787 126.489C768.787 125.851 769.745 123.617 770.702 121.702L772.617 118.192L789.532 117.872C805.808 117.872 806.766 117.872 807.085 118.511C807.085 118.83 808.043 120.745 809.319 123.298C810.277 125.532 811.234 127.766 811.234 128.085C811.234 128.723 811.553 129.043 811.872 129.362C811.872 129.681 812.191 130 812.191 130C812.191 133.83 819.532 136.383 824.638 134.468C825.915 134.149 825.915 133.511 823.681 129.043C822.723 127.128 821.766 124.894 821.766 124.574C821.766 123.936 821.447 123.298 821.128 123.298C820.808 122.979 820.489 122.34 820.489 122.021C820.489 121.702 816.979 114.043 815.702 111.809C815.383 111.489 815.383 110.851 815.383 110.532C815.383 110.213 811.872 102.553 810.596 100.319C810.277 100 810.277 99.3617 810.277 99.0426C810.277 98.7234 809 96.1702 807.723 93.2979C806.447 90.4256 805.17 87.8724 805.17 87.5532C805.17 87.2341 803.894 84.6809 802.617 81.8085C801.34 78.9362 800.064 76.383 800.064 76.0638C800.064 75.1064 797.511 70.3192 796.872 70C795.277 68.7234 783.149 69.0426 782.191 70.3192ZM821.128 69.6809C820.808 70.3192 820.808 77.3404 821.128 78.2979C821.447 79.2553 821.447 79.2553 833.574 79.2553C840.915 79.2553 846.021 79.2553 846.021 79.5745C846.34 79.5745 846.34 90.4256 846.34 106.702C846.34 138.298 845.702 134.787 851.766 134.787C857.511 134.787 856.872 138.298 856.872 106.702C856.872 90.4256 856.872 79.5745 857.191 79.5745C857.191 79.2553 862.298 79.2553 869.638 79.2553C881.766 79.2553 881.766 79.2553 882.085 78.2979C882.404 77.3404 882.404 70.3192 882.085 69.6809C881.447 69.0426 821.766 69.0426 821.128 69.6809ZM891.34 69.6809C890.702 70.3192 890.702 133.83 891.34 134.468C891.66 134.787 897.723 134.787 916.872 134.787H942.085V129.681V124.894H921.979C910.17 124.894 901.872 124.894 901.872 124.574C901.553 124.255 901.553 107.34 901.872 107.021C901.872 106.702 909.532 106.702 920.383 106.702C943.043 106.702 940.808 107.34 940.808 101.915V97.766L921.34 97.4468C910.808 97.4468 901.872 97.4468 901.872 97.1277C901.553 96.8085 901.553 79.8936 901.872 79.5745C901.872 79.2553 910.17 79.2553 921.979 79.2553H942.085V74.4681V69.3617H916.872C897.723 69.3617 891.66 69.3617 891.34 69.6809ZM204.851 78.2979C204.532 78.617 204.532 94.8936 204.851 95.2128C205.17 95.5319 227.191 95.8511 228.787 95.5319C229.426 95.2128 230.702 95.2128 231.66 95.2128C239 94.5745 242.191 80.2128 235.17 79.2553C234.851 79.2553 234.213 78.9362 233.894 78.617C232.936 77.9787 231.979 77.9787 218.574 77.9787C208.362 77.9787 205.17 77.9787 204.851 78.2979ZM425.702 78.2979C425.383 78.617 425.383 122.979 425.702 123.298C426.66 124.255 451.872 123.298 454.106 122.34C454.745 122.021 455.702 121.702 455.702 121.702C456.979 121.702 460.17 119.149 461.766 116.596C463.362 114.362 464.319 111.809 464 111.489C464 111.17 464 110.851 464.319 110.532C465.277 108.936 465.596 101.915 464.957 95.2128C464.319 85.9575 459.213 79.8936 451.234 78.2979C448.043 77.9787 426.021 77.6596 425.702 78.2979ZM559.745 78.2979C559.426 78.617 559.426 99.3617 559.745 99.6809C560.064 100 584 100 584.957 99.6809C585.277 99.6809 586.234 99.3617 586.872 99.3617C590.702 98.7234 593.574 95.8511 594.213 91.7022C594.532 90.7447 594.532 89.4681 594.851 89.149C594.851 88.5107 594.851 87.5532 594.532 86.9149C594.213 86.2766 593.894 85 593.894 84.6809C593.894 82.1277 590.064 78.9362 586.234 78.2979C583.043 77.6596 560.064 77.6596 559.745 78.2979ZM788.574 80.5319C788.255 81.1702 787.936 82.1277 787.936 82.766C787.617 83.4043 786.66 85.6383 785.702 87.5532C784.745 89.4681 784.106 91.0639 784.106 91.383C784.106 91.7022 783.149 93.617 780.915 98.7234C779.957 100.638 779 102.553 779 102.872C779 102.872 778.681 103.83 778.362 104.787C776.447 108.617 775.808 108.298 789.851 108.298C803.255 108.298 802.936 108.298 801.979 106.383C800.702 104.149 797.191 96.4894 797.191 96.1702C797.191 95.8511 797.191 95.2128 796.872 94.8936C795.596 92.3404 792.085 85 792.085 84.6809C792.085 82.1277 789.532 79.2553 788.574 80.5319ZM204.851 104.468C204.532 105.106 204.532 122.979 204.851 123.298C205.17 123.617 231.34 123.617 233.574 123.298C237.085 122.66 240.596 120.106 240.915 117.872C241.872 109.894 239.319 105.426 233.574 104.468C231.34 104.149 204.851 104.149 204.851 104.468Z" fill="#0B0B0B"/>
</g>
</g>
</g>
</g>
<defs>
<clipPath id="clip0_415_2">
<rect width="107" height="120" fill="white" transform="translate(50 40)"/>
</clipPath>
<clipPath id="clip1_415_2">
<rect width="748.085" height="120" fill="white" transform="translate(194 40)"/>
</clipPath>
</defs>
</svg>
